<?xml version="1.0" standalone="no"?>
<!DOCTYPE svg PUBLIC "-//W3C//DTD SVG 20010904//EN"
 "http://www.w3.org/TR/2001/REC-SVG-20010904/DTD/svg10.dtd">
<svg version="1.0" xmlns="http://www.w3.org/2000/svg"
 width="700.000000pt" height="700.000000pt" viewBox="0 0 700.000000 700.000000"
 preserveAspectRatio="xMidYMid meet">
<metadata>
Created by potrace 1.14, written by Peter Selinger 2001-2017
</metadata>
<g transform="translate(0.000000,700.000000) scale(0.100000,-0.100000)"
fill="#000000" stroke="none">
<path d="M2327 6304 c-1 -1 -65 -4 -142 -8 -77 -3 -162 -8 -190 -12 -131 -15
-385 -63 -445 -84 -14 -5 -59 -19 -100 -31 -128 -38 -288 -107 -425 -184 -59
-33 -212 -134 -246 -163 -13 -11 -44 -37 -69 -57 -81 -66 -191 -178 -255 -260
-62 -80 -159 -225 -150 -225 2 0 -9 -23 -25 -50 -17 -28 -30 -55 -30 -61 0 -5
-9 -28 -19 -52 -33 -74 -69 -205 -79 -292 -4 -33 -7 -117 -7 -187 0 -81 -4
-124 -10 -120 -5 3 -4 -2 3 -11 8 -9 15 -33 17 -54 1 -21 5 -45 9 -53 3 -8 8
-28 10 -45 2 -16 7 -38 11 -47 4 -10 8 -29 9 -42 0 -13 3 -23 7 -21 3 2 11
-17 18 -43 8 -26 19 -53 24 -60 12 -15 13 -95 3 -157 -4 -22 -11 -69 -16 -105
-6 -36 -12 -76 -14 -90 -3 -14 -7 -46 -10 -72 -3 -26 -10 -76 -15 -110 -9 -55
-16 -103 -26 -198 -2 -14 -4 -25 -5 -25 -1 0 -3 -18 -5 -40 -2 -22 -8 -60 -12
-85 -15 -78 -11 -114 15 -125 14 -6 20 -15 17 -25 -5 -12 -4 -13 6 -2 19 18
39 15 32 -5 -5 -15 -3 -15 9 1 9 12 29 21 49 22 58 3 173 14 195 18 12 2 57 7
100 11 43 4 83 10 88 13 5 3 6 -1 1 -9 -7 -11 -6 -12 6 -3 15 10 52 16 129 18
25 0 48 6 52 11 5 6 8 5 8 -3 0 -8 5 -10 13 -5 15 9 16 9 107 17 40 3 75 8 78
11 3 3 15 -3 26 -12 20 -17 20 -17 6 0 -13 18 -11 19 60 16 66 -3 103 -12 120
-29 3 -3 12 -6 20 -7 8 -1 43 -12 78 -25 44 -16 61 -27 57 -37 -4 -11 -3 -11
9 -2 10 9 20 9 33 3 10 -6 20 -10 23 -9 3 0 21 -5 42 -12 38 -12 42 -26 18
-57 -14 -18 -14 -18 7 0 12 10 21 21 20 25 -3 8 7 11 34 11 13 0 18 -4 13 -12
-5 -8 -2 -9 9 -5 10 3 24 4 32 1 13 -5 13 -9 3 -23 -11 -15 -11 -15 6 0 16 15
24 15 67 4 27 -7 52 -13 54 -14 18 0 103 -14 118 -18 15 -4 16 -7 5 -21 -12
-16 -11 -16 7 -1 16 13 37 15 105 12 47 -3 90 -9 96 -14 6 -5 15 -4 22 3 8 8
12 8 12 1 0 -6 11 -8 28 -5 25 5 26 4 12 -14 -14 -18 -14 -18 5 -2 15 13 41
17 110 18 207 2 305 5 305 10 0 3 16 5 35 5 31 0 35 -3 31 -20 -3 -11 -8 -44
-12 -72 -3 -29 -9 -51 -13 -49 -14 9 -12 -331 3 -404 3 -16 16 -94 19 -120 2
-8 6 -20 10 -26 3 -6 8 -27 11 -47 2 -19 9 -44 15 -55 6 -11 7 -22 4 -26 -3
-3 -2 -6 4 -6 5 0 16 -23 23 -50 7 -27 17 -50 22 -50 4 0 8 -6 8 -12 0 -7 7
-26 15 -42 8 -15 12 -33 8 -39 -3 -6 -1 -7 5 -3 7 4 12 1 12 -8 0 -9 5 -16 11
-16 5 0 7 -5 4 -10 -3 -5 -1 -10 5 -10 6 0 9 -4 6 -9 -4 -5 -2 -11 3 -13 5 -1
11 -10 13 -18 2 -8 9 -21 16 -28 7 -8 9 -18 6 -24 -4 -7 -2 -8 4 -4 13 8 45
-48 34 -59 -4 -3 -2 -5 3 -3 6 2 11 -1 12 -5 1 -5 11 -17 22 -26 12 -10 21
-21 21 -24 0 -4 18 -25 40 -47 22 -23 38 -46 34 -51 -3 -5 -1 -8 4 -7 12 4 88
-73 84 -86 -2 -6 0 -8 3 -4 10 10 95 -60 91 -75 -1 -7 -1 -9 1 -4 8 13 25 7
20 -7 -4 -10 -1 -13 9 -9 7 3 14 0 14 -6 0 -6 7 -11 16 -11 10 0 14 -5 10 -16
-3 -8 -2 -12 3 -9 14 8 77 -30 73 -45 -1 -6 1 -9 5 -7 5 3 18 1 30 -4 16 -6
21 -14 17 -26 -5 -14 -4 -15 4 -4 8 11 15 10 40 -5 17 -10 29 -21 26 -25 -2
-4 4 -5 14 -2 10 2 24 -2 31 -11 11 -13 10 -15 -8 -11 -12 2 -19 0 -16 -6 4
-5 1 -9 -6 -9 -7 0 -10 -3 -6 -6 3 -3 12 -2 19 2 24 16 41 13 107 -18 36 -17
72 -32 80 -34 8 -1 17 -8 21 -14 4 -7 11 -11 16 -11 10 1 104 -29 119 -38 10
-6 16 -7 35 -10 6 0 10 -6 10 -12 0 -5 -4 -8 -9 -5 -5 3 -15 -2 -22 -12 -13
-15 -12 -16 4 -3 9 7 17 10 17 6 0 -4 7 -1 17 6 13 11 17 11 20 1 3 -6 8 -10
13 -7 4 3 35 -4 68 -14 33 -11 73 -22 90 -24 17 -3 35 -8 41 -12 6 -3 32 -9
58 -12 27 -3 50 -8 53 -12 3 -3 21 -7 40 -7 19 -1 51 -4 70 -8 46 -10 89 -13
183 -15 54 -1 76 -4 71 -12 -5 -8 -1 -8 14 0 30 16 41 14 37 -8 -2 -11 4 -26
13 -33 13 -11 14 -11 7 2 -14 23 -15 41 -2 45 7 2 60 6 118 8 58 2 111 7 117
11 7 4 12 1 12 -6 0 -10 2 -10 9 1 5 8 16 11 25 8 8 -3 18 -2 21 4 4 5 11 7
16 3 5 -3 6 -10 3 -16 -4 -7 -2 -8 5 -4 6 4 9 11 6 16 -2 4 6 10 20 12 16 4
22 1 18 -6 -5 -7 -2 -7 8 1 8 6 34 14 58 18 23 3 54 10 67 15 13 5 24 7 24 4
0 -4 7 -1 15 6 8 7 15 10 15 7 0 -3 15 -1 33 4 17 6 37 11 42 13 34 8 162 50
170 56 6 3 39 17 75 29 36 12 79 29 96 36 17 8 52 13 80 11 27 -2 67 -4 89 -5
31 -1 37 -4 25 -12 -12 -9 -11 -10 5 -4 11 3 22 7 25 8 5 1 138 -12 195 -20
17 -2 53 -6 80 -8 28 -3 64 -7 80 -9 17 -2 66 -7 110 -11 44 -3 91 -9 105 -12
14 -2 76 -6 138 -8 63 -2 116 -6 120 -9 3 -3 10 -6 16 -6 5 0 1 6 -9 14 -11 8
-23 12 -27 10 -5 -3 -8 2 -8 11 0 10 5 13 12 9 7 -4 8 -3 4 5 -4 6 -9 30 -10
54 -2 23 -6 56 -9 72 -10 49 -19 126 -20 182 -1 29 -5 53 -8 53 -6 0 -9 26
-12 98 -1 17 -6 32 -12 32 -5 0 -3 5 5 10 11 7 12 10 2 10 -8 0 -12 6 -9 13 2
6 0 22 -4 35 -6 16 -5 22 6 22 7 0 16 4 19 9 3 5 -2 8 -11 7 -13 -1 -18 7 -19
29 -1 17 -3 30 -4 30 -1 0 -4 20 -6 44 -3 25 -7 47 -9 50 -3 2 1 11 8 19 9 13
9 14 0 8 -7 -4 -13 -3 -13 3 0 5 -3 17 -7 27 -5 13 -3 15 8 9 12 -8 12 -6 0 8
-7 9 -11 23 -8 32 4 8 3 16 -1 19 -4 2 -5 27 -4 55 3 33 8 49 15 44 5 -3 7 -2
4 4 -4 6 5 45 18 88 14 43 25 84 25 91 0 8 3 14 8 14 4 0 7 10 8 23 0 22 9 80
19 127 2 14 6 55 7 92 2 36 7 64 11 61 5 -3 5 3 -1 13 -5 11 -10 49 -11 85 -1
36 -4 77 -6 90 -6 29 -16 84 -19 113 -2 11 -9 35 -15 51 -7 17 -13 44 -14 62
-1 17 -4 31 -7 30 -3 -1 -6 0 -7 3 -1 3 -6 17 -12 31 -7 19 -6 30 2 38 9 9 8
11 -3 6 -11 -4 -19 4 -27 25 -6 17 -8 28 -4 26 4 -3 8 1 8 8 0 8 -6 12 -12 10
-6 -3 -20 14 -31 38 -10 24 -22 46 -27 49 -5 4 -10 18 -10 32 -1 14 -6 25 -11
24 -12 -3 -56 75 -51 90 2 7 -2 10 -12 6 -10 -4 -14 -2 -10 4 4 6 0 14 -9 17
-8 3 -12 10 -9 16 4 6 11 7 17 4 7 -4 8 -2 4 4 -4 6 -13 9 -20 6 -8 -3 -24 9
-37 28 -13 18 -38 48 -56 67 -18 19 -30 38 -27 43 3 5 1 7 -3 6 -12 -4 -119
103 -115 114 1 5 -1 7 -6 4 -5 -3 -23 7 -41 22 -17 15 -42 35 -56 45 -14 10
-22 23 -19 29 4 7 2 8 -5 4 -6 -4 -24 2 -39 14 -41 32 -132 90 -143 90 -5 0
-9 4 -9 9 0 5 -11 12 -25 15 -16 4 -23 11 -19 18 4 7 3 8 -4 4 -11 -7 -51 11
-63 27 -3 5 -10 9 -15 10 -27 3 -83 31 -77 40 3 6 1 7 -5 3 -7 -4 -38 4 -69
18 -32 13 -68 28 -80 31 -13 4 -23 11 -23 16 0 6 -4 8 -8 5 -5 -3 -38 4 -73
15 -35 11 -75 22 -89 25 -14 3 -38 9 -55 14 -59 17 -164 34 -280 45 -38 4 -78
9 -90 11 -70 14 -436 23 -428 12 5 -9 -6 -9 -28 0 -13 6 -14 15 -5 62 8 36 16
54 24 52 8 -1 11 2 7 8 -3 6 -11 8 -16 4 -6 -3 -7 5 -3 21 3 14 7 40 8 58 1
18 4 37 7 42 3 6 5 27 3 48 -2 26 1 35 9 31 8 -5 8 -2 0 7 -18 18 -16 39 5 63
15 19 16 20 0 7 -16 -11 -17 -10 -17 16 0 15 -2 50 -6 76 -4 38 -3 47 7 42 7
-3 6 0 -4 6 -14 11 -15 15 -1 36 10 14 11 23 4 23 -6 0 -11 -8 -12 -17 -1 -23
-17 43 -21 85 -1 17 -5 32 -8 32 -4 0 -7 7 -8 15 -1 8 -3 22 -4 30 -1 8 -6 15
-11 15 -6 0 -8 3 -5 6 4 3 -3 26 -14 51 -11 24 -17 47 -14 50 3 4 -3 12 -14
20 -11 8 -20 23 -20 33 0 10 -5 22 -10 25 -8 5 -7 12 2 23 11 13 11 15 -4 9
-12 -4 -19 2 -26 23 -6 15 -8 31 -6 34 2 3 1 4 -2 1 -13 -9 -54 53 -54 80 0 9
-4 13 -10 10 -5 -3 -10 -2 -10 3 0 5 -14 26 -30 47 -17 21 -29 44 -26 51 3 8
-1 11 -10 7 -9 -3 -19 6 -29 28 -8 19 -14 30 -15 26 0 -11 -30 19 -30 30 0 4
-9 14 -21 21 -18 11 -19 16 -7 30 11 15 11 16 -3 4 -14 -11 -24 -5 -72 42 -31
30 -61 56 -67 58 -6 2 -12 11 -14 20 -1 10 -6 21 -11 25 -4 4 -5 2 -1 -4 4 -7
5 -13 2 -13 -11 0 -125 88 -121 92 3 3 -1 5 -8 5 -6 0 -49 23 -95 51 -97 59
-259 139 -363 180 -41 16 -83 33 -94 37 -11 5 -23 9 -27 10 -5 2 -9 3 -10 5
-2 1 -10 3 -18 5 -47 11 -136 39 -140 44 -3 3 -14 7 -25 7 -11 1 -33 5 -50 9
-73 17 -246 46 -315 51 -41 4 -82 10 -91 14 -8 5 -20 5 -27 2 -6 -4 -41 -5
-77 -2 -36 3 -67 5 -68 4z"/>
<path d="M4230 5382 c0 -5 7 -9 15 -9 8 0 12 4 9 9 -3 4 -9 8 -15 8 -5 0 -9
-4 -9 -8z"/>
<path d="M4287 5339 c7 -7 15 -10 18 -7 3 3 -2 9 -12 12 -14 6 -15 5 -6 -5z"/>
<path d="M4390 5136 c7 -7 13 -7 20 0 6 6 3 10 -10 10 -13 0 -16 -4 -10 -10z"/>
<path d="M4406 5098 c3 -5 10 -6 15 -3 13 9 11 12 -6 12 -8 0 -12 -4 -9 -9z"/>
<path d="M4415 5011 c-3 -5 -2 -12 3 -15 5 -3 9 1 9 9 0 17 -3 19 -12 6z"/>
<path d="M4433 4952 c-1 -22 0 -24 9 -8 6 10 6 22 2 26 -5 5 -10 -3 -11 -18z"/>
<path d="M4470 4845 c0 -7 30 -13 34 -7 3 4 -4 9 -15 9 -10 1 -19 0 -19 -2z"/>
<path d="M4467 4816 c4 -12 3 -17 -4 -13 -5 3 -10 0 -10 -8 0 -10 4 -12 12 -5
7 5 14 8 17 5 3 -3 11 3 19 12 11 15 11 16 -1 6 -11 -10 -16 -9 -27 5 -12 16
-13 16 -6 -2z"/>
<path d="M4530 4801 c0 -6 4 -13 10 -16 6 -3 7 1 4 9 -7 18 -14 21 -14 7z"/>
<path d="M4450 4761 c0 -6 4 -13 10 -16 6 -3 7 1 4 9 -7 18 -14 21 -14 7z"/>
<path d="M4500 4746 c0 -2 8 -10 18 -17 15 -13 16 -12 3 4 -13 16 -21 21 -21
13z"/>
<path d="M4480 4726 c0 -2 8 -10 18 -17 15 -13 16 -12 3 4 -13 16 -21 21 -21
13z"/>
<path d="M4556 4698 c3 -5 10 -6 15 -3 13 9 11 12 -6 12 -8 0 -12 -4 -9 -9z"/>
<path d="M4470 4666 c0 -2 7 -7 16 -10 8 -3 12 -2 9 4 -6 10 -25 14 -25 6z"/>
<path d="M4463 4644 c9 -11 14 -23 11 -26 -3 -3 -1 -8 4 -12 18 -11 8 25 -12
41 -21 18 -21 18 -3 -3z"/>
<path d="M4549 4643 c-13 -16 -12 -17 4 -4 9 7 17 15 17 17 0 8 -8 3 -21 -13z"/>
<path d="M4500 4626 c0 -2 8 -10 18 -17 15 -13 16 -12 3 4 -13 16 -21 21 -21
13z"/>
<path d="M4484 4558 l-19 -23 23 19 c21 18 27 26 19 26 -2 0 -12 -10 -23 -22z"/>
<path d="M4530 4539 c0 -5 5 -7 10 -4 6 3 10 8 10 11 0 2 -4 4 -10 4 -5 0 -10
-5 -10 -11z"/>
<path d="M4480 4500 c-9 -6 -10 -10 -3 -10 6 0 15 5 18 10 8 12 4 12 -15 0z"/>
<path d="M4510 4480 c0 -5 5 -10 11 -10 5 0 7 5 4 10 -3 6 -8 10 -11 10 -2 0
-4 -4 -4 -10z"/>
<path d="M4470 4476 c0 -2 8 -10 18 -17 15 -13 16 -12 3 4 -13 16 -21 21 -21
13z"/>
<path d="M4516 4447 c3 -10 9 -15 12 -12 3 3 0 11 -7 18 -10 9 -11 8 -5 -6z"/>
<path d="M4445 4440 c-3 -6 1 -7 9 -4 18 7 21 14 7 14 -6 0 -13 -4 -16 -10z"/>
<path d="M4489 4404 c-11 -14 -24 -52 -14 -42 2 1 3 6 2 9 -1 4 7 16 17 28 11
12 17 21 14 21 -3 0 -12 -7 -19 -16z"/>
<path d="M4513 4392 c-8 -14 -8 -19 1 -19 7 0 13 9 13 19 1 10 1 18 0 18 -1 0
-7 -8 -14 -18z"/>
<path d="M4442 4377 c-18 -21 -3 -67 21 -67 8 0 7 4 -2 9 -18 12 -23 41 -9 58
6 7 8 13 5 13 -2 0 -9 -6 -15 -13z"/>
<path d="M4484 4339 c-3 -6 0 -17 8 -25 13 -13 15 -13 15 0 0 8 -5 12 -10 9
-6 -4 -8 0 -4 10 7 19 2 23 -9 6z"/>
<path d="M4526 4342 c-3 -5 1 -9 9 -9 8 0 12 4 9 9 -3 4 -7 8 -9 8 -2 0 -6 -4
-9 -8z"/>
<path d="M6076 3862 c-3 -5 1 -9 9 -9 8 0 12 4 9 9 -3 4 -7 8 -9 8 -2 0 -6 -4
-9 -8z"/>
<path d="M6316 3647 c3 -10 9 -15 12 -12 3 3 0 11 -7 18 -10 9 -11 8 -5 -6z"/>
<path d="M6555 3369 c-4 -6 -5 -12 -2 -15 2 -3 7 2 10 11 7 17 1 20 -8 4z"/>
<path d="M6556 3318 c3 -5 10 -6 15 -3 13 9 11 12 -6 12 -8 0 -12 -4 -9 -9z"/>
<path d="M879 3153 c-13 -16 -12 -17 4 -4 9 7 17 15 17 17 0 8 -8 3 -21 -13z"/>
<path d="M919 3168 c-7 -25 -3 -40 14 -55 22 -18 22 -18 6 2 -9 11 -15 28 -14
38 3 13 -2 26 -6 15z"/>
<path d="M990 3158 c0 -6 3 -8 7 -5 3 4 13 1 22 -6 14 -11 14 -10 2 6 -15 20
-31 22 -31 5z"/>
<path d="M1096 3153 c-6 -14 -5 -15 5 -6 7 7 10 15 7 18 -3 3 -9 -2 -12 -12z"/>
<path d="M580 3140 c-8 -5 -10 -10 -5 -10 6 0 17 5 25 10 8 5 11 10 5 10 -5 0
-17 -5 -25 -10z"/>
<path d="M699 3148 c-5 -16 -4 -46 2 -42 4 2 7 13 6 24 -1 17 -5 26 -8 18z"/>
<path d="M755 3141 c-3 -5 -2 -12 3 -15 5 -3 9 1 9 9 0 17 -3 19 -12 6z"/>
<path d="M830 3142 c0 -5 7 -9 15 -9 8 0 12 4 9 9 -3 4 -9 8 -15 8 -5 0 -9 -4
-9 -8z"/>
<path d="M1120 3135 c-7 -9 -11 -17 -9 -20 3 -2 10 5 17 15 14 24 10 26 -8 5z"/>
<path d="M1195 3130 c-3 -6 1 -7 9 -4 18 7 21 14 7 14 -6 0 -13 -4 -16 -10z"/>
<path d="M1244 3122 c23 -26 23 -26 23 -7 0 8 -3 13 -5 10 -3 -3 -12 1 -21 7
-10 8 -9 4 3 -10z"/>
<path d="M6633 3127 c0 -8 6 -14 14 -14 9 0 10 4 2 14 -6 7 -12 13 -14 13 -1
0 -2 -6 -2 -13z"/>
<path d="M991 3127 c2 -2 11 -8 20 -15 12 -9 16 -9 16 1 0 7 -9 14 -20 14 -11
1 -18 1 -16 0z"/>
<path d="M1153 3113 c0 -11 7 -20 14 -20 10 0 10 4 1 16 -7 9 -13 18 -15 20
-1 2 -1 -5 0 -16z"/>
<path d="M293 3105 c0 -8 4 -12 9 -9 5 3 6 10 3 15 -9 13 -12 11 -12 -6z"/>
<path d="M599 3093 c-13 -16 -12 -17 4 -4 9 7 17 15 17 17 0 8 -8 3 -21 -13z"/>
<path d="M994 3093 c16 -20 36 -23 36 -6 0 4 -3 3 -7 0 -3 -4 -16 1 -27 10
-21 18 -21 18 -2 -4z"/>
<path d="M1196 3098 c3 -5 10 -6 15 -3 13 9 11 12 -6 12 -8 0 -12 -4 -9 -9z"/>
<path d="M1346 3098 c3 -5 10 -6 15 -3 13 9 11 12 -6 12 -8 0 -12 -4 -9 -9z"/>
<path d="M433 3086 c0 -8 7 -13 16 -11 9 1 25 -5 36 -14 20 -16 20 -16 1 7
-11 12 -21 20 -24 17 -3 -3 -10 0 -17 5 -8 7 -12 5 -12 -4z"/>
<path d="M513 3087 c0 -7 11 -13 23 -13 20 0 25 11 6 11 -4 0 -12 3 -18 7 -6
4 -11 1 -11 -5z"/>
<path d="M1096 3087 c3 -10 9 -15 12 -12 3 3 0 11 -7 18 -10 9 -11 8 -5 -6z"/>
<path d="M1295 3080 c2 -27 10 -33 12 -10 1 11 -2 22 -6 24 -4 3 -7 -4 -6 -14z"/>
<path d="M1436 3091 c-3 -5 -19 -7 -35 -6 -16 1 -35 -1 -41 -5 -7 -4 7 -7 31
-5 24 1 53 -2 64 -7 18 -8 19 -8 3 5 -10 8 -15 17 -11 20 3 4 4 7 0 7 -3 0 -8
-4 -11 -9z"/>
<path d="M250 3079 c0 -5 5 -7 10 -4 6 3 10 8 10 11 0 2 -4 4 -10 4 -5 0 -10
-5 -10 -11z"/>
<path d="M570 3081 c0 -6 4 -13 10 -16 6 -3 7 1 4 9 -7 18 -14 21 -14 7z"/>
<path d="M638 3079 c-7 -4 2 -7 20 -5 17 1 34 4 36 7 8 8 -43 6 -56 -2z"/>
<path d="M790 3086 c0 -2 7 -7 16 -10 8 -3 12 -2 9 4 -6 10 -25 14 -25 6z"/>
<path d="M926 3078 c3 -5 10 -6 15 -3 13 9 11 12 -6 12 -8 0 -12 -4 -9 -9z"/>
<path d="M1220 3080 c-9 -6 -10 -10 -3 -10 6 0 15 5 18 10 8 12 4 12 -15 0z"/>
<path d="M1476 3078 c3 -5 10 -6 15 -3 13 9 11 12 -6 12 -8 0 -12 -4 -9 -9z"/>
<path d="M6690 3081 c0 -6 4 -13 10 -16 6 -3 7 1 4 9 -7 18 -14 21 -14 7z"/>
<path d="M275 3070 c-3 -6 1 -7 9 -4 18 7 21 14 7 14 -6 0 -13 -4 -16 -10z"/>
<path d="M1135 3060 c-3 -5 -1 -10 4 -10 6 0 11 5 11 10 0 6 -2 10 -4 10 -3 0
-8 -4 -11 -10z"/>
<path d="M1505 3059 c-3 -4 2 -6 10 -5 21 3 28 13 10 13 -9 0 -18 -4 -20 -8z"/>
<path d="M395 3051 c-3 -5 -2 -12 3 -15 5 -3 9 1 9 9 0 17 -3 19 -12 6z"/>
<path d="M454 3040 c0 -13 4 -16 10 -10 7 7 7 13 0 20 -6 6 -10 3 -10 -10z"/>
<path d="M530 3057 c0 -2 6 -10 14 -16 11 -9 16 -9 22 1 4 7 4 10 -1 6 -4 -4
-14 -3 -22 3 -7 6 -13 9 -13 6z"/>
<path d="M655 3049 c-4 -6 -5 -12 -2 -15 2 -3 7 2 10 11 7 17 1 20 -8 4z"/>
<path d="M313 3032 c2 -12 6 -24 10 -28 3 -4 4 4 2 16 -6 30 -16 40 -12 12z"/>
<path d="M693 3035 c0 -8 4 -12 9 -9 4 3 8 9 8 15 0 5 -4 9 -8 9 -5 0 -9 -7
-9 -15z"/>
<path d="M6680 3040 c-12 -7 -10 -9 7 -7 12 0 19 5 17 9 -6 10 -6 10 -24 -2z"/>
<path d="M756 3027 c3 -10 9 -15 12 -12 3 3 0 11 -7 18 -10 9 -11 8 -5 -6z"/>
<path d="M230 3019 c0 -5 5 -7 10 -4 6 3 10 8 10 11 0 2 -4 4 -10 4 -5 0 -10
-5 -10 -11z"/>
<path d="M266 3018 c3 -4 9 -8 15 -8 5 0 9 4 9 8 0 5 -7 9 -15 9 -8 0 -12 -4
-9 -9z"/>
<path d="M387 3019 c7 -7 15 -10 18 -7 3 3 -2 9 -12 12 -14 6 -15 5 -6 -5z"/>
<path d="M1682 3018 c-15 -15 -15 -28 0 -28 6 0 8 3 5 7 -4 3 -2 12 4 20 14
16 7 17 -9 1z"/>
<path d="M594 3009 c-3 -6 -2 -15 3 -20 5 -5 9 -1 9 11 0 23 -2 24 -12 9z"/>
<path d="M1496 2998 c3 -5 10 -6 15 -3 13 9 11 12 -6 12 -8 0 -12 -4 -9 -9z"/>
<path d="M1553 2993 c0 -9 4 -10 14 -2 7 6 13 12 13 14 0 1 -6 2 -13 2 -8 0
-14 -6 -14 -14z"/>
<path d="M1590 3000 c0 -5 5 -10 11 -10 5 0 7 5 4 10 -3 6 -8 10 -11 10 -2 0
-4 -4 -4 -10z"/>
<path d="M1736 2993 c-6 -14 -5 -15 5 -6 7 7 10 15 7 18 -3 3 -9 -2 -12 -12z"/>
<path d="M393 2965 c0 -8 4 -12 9 -9 5 3 6 10 3 15 -9 13 -12 11 -12 -6z"/>
<path d="M1853 2965 c0 -8 3 -13 5 -10 3 3 12 -1 21 -7 10 -8 9 -4 -3 10 -23
26 -23 26 -23 7z"/>
<path d="M1993 2965 c0 -8 3 -13 5 -10 3 3 12 -1 21 -7 10 -8 9 -4 -3 10 -23
26 -23 26 -23 7z"/>
<path d="M6693 2965 c0 -8 4 -15 9 -15 4 0 8 4 8 9 0 6 -4 12 -8 15 -5 3 -9
-1 -9 -9z"/>
<path d="M1575 2960 c3 -5 8 -10 11 -10 2 0 4 5 4 10 0 6 -5 10 -11 10 -5 0
-7 -4 -4 -10z"/>
<path d="M1753 2964 c3 -3 12 -6 20 -8 8 -1 23 -8 33 -16 18 -14 18 -14 2 6
-9 11 -27 20 -39 21 -12 1 -19 0 -16 -3z"/>
<path d="M1926 2958 c3 -5 10 -6 15 -3 13 9 11 12 -6 12 -8 0 -12 -4 -9 -9z"/>
<path d="M2376 2953 c-6 -14 -5 -15 5 -6 7 7 10 15 7 18 -3 3 -9 -2 -12 -12z"/>
<path d="M2474 2958 c-4 -7 -4 -10 1 -6 4 4 15 2 24 -5 14 -11 14 -10 2 6 -16
20 -18 21 -27 5z"/>
<path d="M2597 2952 c-15 -16 -15 -19 -2 -19 8 0 13 3 10 5 -3 3 0 11 6 19 17
20 5 16 -14 -5z"/>
<path d="M2640 2960 c-9 -6 -10 -10 -3 -10 6 0 15 5 18 10 8 12 4 12 -15 0z"/>
<path d="M2111 2947 c-8 -10 -7 -14 2 -14 8 0 14 6 14 14 0 7 -1 13 -2 13 -2
0 -8 -6 -14 -13z"/>
<path d="M2239 2958 c-5 -18 -6 -38 -1 -34 7 8 12 36 6 36 -2 0 -4 -1 -5 -2z"/>
<path d="M2269 2943 c-13 -16 -12 -17 4 -4 9 7 17 15 17 17 0 8 -8 3 -21 -13z"/>
<path d="M6735 2949 c-4 -6 -5 -12 -2 -15 2 -3 7 2 10 11 7 17 1 20 -8 4z"/>
<path d="M1907 2939 c7 -7 15 -10 18 -7 3 3 -2 9 -12 12 -14 6 -15 5 -6 -5z"/>
<path d="M2066 2942 c-3 -5 1 -9 9 -9 8 0 12 4 9 9 -3 4 -7 8 -9 8 -2 0 -6 -4
-9 -8z"/>
<path d="M2145 2940 c-3 -6 1 -7 9 -4 18 7 21 14 7 14 -6 0 -13 -4 -16 -10z"/>
<path d="M1773 2925 c0 -8 4 -12 9 -9 5 3 6 10 3 15 -9 13 -12 11 -12 -6z"/>
<path d="M1854 2915 c0 -13 3 -22 7 -19 8 4 6 30 -2 38 -3 3 -5 -5 -5 -19z"/>
<path d="M1976 2927 c3 -10 9 -15 12 -12 3 3 0 11 -7 18 -10 9 -11 8 -5 -6z"/>
<path d="M2179 2938 c-5 -18 -6 -38 -1 -34 7 8 12 36 6 36 -2 0 -4 -1 -5 -2z"/>
<path d="M2539 2928 c15 -21 31 -23 31 -6 0 6 -3 8 -7 5 -3 -4 -13 -1 -22 6
-14 11 -14 10 -2 -5z"/>
<path d="M1953 2915 c0 -8 4 -12 9 -9 5 3 6 10 3 15 -9 13 -12 11 -12 -6z"/>
<path d="M2293 2915 c0 -8 4 -12 9 -9 4 3 8 9 8 15 0 5 -4 9 -8 9 -5 0 -9 -7
-9 -15z"/>
<path d="M2370 2920 c0 -5 9 -8 20 -7 21 1 18 10 -5 13 -8 1 -15 -2 -15 -6z"/>
<path d="M2443 2913 c-10 -10 -13 -14 -6 -10 6 5 16 6 21 3 5 -3 9 1 9 9 0 19
-1 19 -24 -2z"/>
<path d="M2496 2913 c-6 -14 -5 -15 5 -6 7 7 10 15 7 18 -3 3 -9 -2 -12 -12z"/>
<path d="M1913 2907 c0 -8 6 -14 14 -14 9 0 10 4 2 14 -6 7 -12 13 -14 13 -1
0 -2 -6 -2 -13z"/>
<path d="M2517 2907 c-3 -8 1 -14 8 -14 7 0 11 6 8 14 -3 7 -6 13 -8 13 -2 0
-5 -6 -8 -13z"/>
<path d="M2323 2898 c-11 -19 -12 -37 -3 -43 5 -3 7 3 5 12 -1 10 2 24 8 31 5
6 7 12 4 12 -3 0 -9 -6 -14 -12z"/>
<path d="M2595 2901 c-3 -5 -2 -12 3 -15 5 -3 9 1 9 9 0 17 -3 19 -12 6z"/>
<path d="M2628 2903 c10 -4 9 -10 -5 -27 l-18 -21 22 19 c23 19 22 37 0 35 -8
0 -8 -2 1 -6z"/>
<path d="M2129 2883 c-13 -16 -12 -17 4 -4 16 13 21 21 13 21 -2 0 -10 -8 -17
-17z"/>
<path d="M2253 2887 c0 -8 6 -14 14 -14 9 0 10 4 2 14 -6 7 -12 13 -14 13 -1
0 -2 -6 -2 -13z"/>
<path d="M2026 2882 c-2 -4 4 -8 14 -8 10 0 16 4 14 8 -3 4 -9 8 -14 8 -5 0
-11 -4 -14 -8z"/>
<path d="M2070 2879 c0 -5 5 -7 10 -4 6 3 10 8 10 11 0 2 -4 4 -10 4 -5 0 -10
-5 -10 -11z"/>
<path d="M2159 2873 c-13 -16 -12 -17 4 -4 9 7 17 15 17 17 0 8 -8 3 -21 -13z"/>
<path d="M2347 2879 c7 -7 15 -10 18 -7 3 3 -2 9 -12 12 -14 6 -15 5 -6 -5z"/>
<path d="M2450 2875 c5 -7 6 -16 2 -21 -4 -5 -3 -5 2 -1 15 12 15 34 0 34 -9
0 -11 -4 -4 -12z"/>
<path d="M2493 2875 c0 -8 4 -12 9 -9 5 3 6 10 3 15 -9 13 -12 11 -12 -6z"/>
<path d="M2350 2856 c0 -2 8 -10 18 -17 15 -13 16 -12 3 4 -13 16 -21 21 -21
13z"/>
<path d="M2510 2836 c7 -7 13 -7 20 0 6 6 3 10 -10 10 -13 0 -16 -4 -10 -10z"/>
<path d="M6719 2708 c-6 -20 -6 -39 0 -42 4 -3 7 6 7 20 0 20 -4 32 -7 22z"/>
<path d="M6750 2700 c0 -5 9 -8 20 -7 21 1 18 10 -5 13 -8 1 -15 -2 -15 -6z"/>
<path d="M6733 2633 c0 -9 4 -10 14 -2 7 6 13 12 13 14 0 1 -6 2 -13 2 -8 0
-14 -6 -14 -14z"/>
<path d="M6756 2601 c-3 -5 1 -14 8 -20 10 -9 16 -9 21 -1 4 6 1 9 -7 8 -7 -2
-12 3 -10 10 2 14 -4 16 -12 3z"/>
<path d="M6719 2558 c-6 -20 -6 -39 0 -42 4 -3 7 6 7 20 0 20 -4 32 -7 22z"/>
<path d="M6716 2487 c3 -10 9 -15 12 -12 3 3 0 11 -7 18 -10 9 -11 8 -5 -6z"/>
<path d="M6746 2479 c4 -8 30 -6 38 2 3 3 -5 5 -19 5 -13 0 -22 -3 -19 -7z"/>
<path d="M6714 2405 c1 -8 8 -21 16 -28 12 -10 12 -9 2 4 -6 9 -9 18 -6 21 3
3 1 9 -4 12 -6 3 -9 -1 -8 -9z"/>
<path d="M6787 2359 c7 -7 15 -10 18 -7 3 3 -2 9 -12 12 -14 6 -15 5 -6 -5z"/>
<path d="M6716 2338 c3 -5 10 -6 15 -3 13 9 11 12 -6 12 -8 0 -12 -4 -9 -9z"/>
<path d="M6790 2316 c0 -2 8 -10 18 -17 15 -13 16 -12 3 4 -13 16 -21 21 -21
13z"/>
<path d="M6675 2281 c-3 -5 -2 -12 3 -15 5 -3 9 1 9 9 0 17 -3 19 -12 6z"/>
<path d="M6715 2242 c3 -3 -1 -12 -7 -21 -8 -10 -4 -9 10 3 26 23 26 23 7 23
-8 0 -13 -3 -10 -5z"/>
<path d="M6679 2173 c-13 -16 -12 -17 4 -4 16 13 21 21 13 21 -2 0 -10 -8 -17
-17z"/>
<path d="M6710 2185 c0 -7 30 -13 34 -7 3 4 -4 9 -15 9 -10 1 -19 0 -19 -2z"/>
<path d="M6650 2161 c0 -6 4 -13 10 -16 6 -3 7 1 4 9 -7 18 -14 21 -14 7z"/>
<path d="M6699 2153 c-13 -16 -12 -17 4 -4 16 13 21 21 13 21 -2 0 -10 -8 -17
-17z"/>
<path d="M6646 2118 c4 -5 9 -7 12 -4 3 3 15 -2 26 -11 21 -18 21 -18 3 3 -16
20 -52 30 -41 12z"/>
<path d="M6653 2085 c0 -8 3 -13 5 -10 3 3 12 -1 21 -7 10 -8 9 -4 -3 10 -23
26 -23 26 -23 7z"/>
<path d="M6660 2046 c19 -24 21 -47 7 -66 -9 -13 -9 -13 3 -2 8 7 15 26 16 42
0 16 -2 27 -4 25 -3 -3 -12 1 -21 8 -14 11 -15 10 -1 -7z"/>
<path d="M6606 2002 c-3 -5 1 -9 9 -9 8 0 15 4 15 9 0 4 -4 8 -9 8 -6 0 -12
-4 -15 -8z"/>
<path d="M6650 1936 c0 -2 8 -10 18 -17 15 -13 16 -12 3 4 -13 16 -21 21 -21
13z"/>
<path d="M6630 1923 c0 -6 8 -17 18 -24 16 -13 16 -13 2 6 -8 11 -16 22 -17
24 -2 2 -3 0 -3 -6z"/>
<path d="M6635 1870 c10 -11 20 -20 23 -20 3 0 -3 9 -13 20 -10 11 -20 20 -23
20 -3 0 3 -9 13 -20z"/>
<path d="M6700 1846 c0 -2 8 -10 18 -17 15 -13 16 -12 3 4 -13 16 -21 21 -21
13z"/>
<path d="M6640 1820 c-9 -6 -10 -10 -3 -10 6 0 15 5 18 10 8 12 4 12 -15 0z"/>
<path d="M6675 1719 c-3 -4 2 -6 10 -5 21 3 28 13 10 13 -9 0 -18 -4 -20 -8z"/>
<path d="M6671 1653 c8 -9 8 -17 0 -26 -8 -10 -7 -14 2 -14 8 0 13 12 13 27 0
15 -5 27 -13 27 -9 0 -10 -4 -2 -14z"/>
<path d="M3014 1636 c1 -8 5 -18 8 -22 4 -3 5 1 4 10 -1 8 -5 18 -8 22 -4 3
-5 -1 -4 -10z"/>
<path d="M6735 1620 c-3 -5 -1 -10 4 -10 6 0 11 5 11 10 0 6 -2 10 -4 10 -3 0
-8 -4 -11 -10z"/>
<path d="M6669 1577 c6 -8 9 -16 6 -19 -3 -2 2 -5 10 -5 13 0 13 3 -2 19 -19
21 -31 25 -14 5z"/>
<path d="M6713 1569 c-2 -23 3 -25 10 -4 4 8 3 16 -1 19 -4 3 -9 -4 -9 -15z"/>
<path d="M3116 1498 c3 -5 10 -6 15 -3 13 9 11 12 -6 12 -8 0 -12 -4 -9 -9z"/>
<path d="M3150 1500 c0 -5 5 -10 11 -10 5 0 7 5 4 10 -3 6 -8 10 -11 10 -2 0
-4 -4 -4 -10z"/>
<path d="M3150 1476 c0 -2 8 -10 18 -17 15 -13 16 -12 3 4 -13 16 -21 21 -21
13z"/>
<path d="M6699 1433 c-13 -16 -12 -17 4 -4 16 13 21 21 13 21 -2 0 -10 -8 -17
-17z"/>
<path d="M3215 1409 c-4 -6 -5 -12 -2 -15 2 -3 7 2 10 11 7 17 1 20 -8 4z"/>
<path d="M6706 1399 c2 -4 13 -7 24 -6 23 2 17 10 -10 12 -10 1 -17 -2 -14 -6z"/>
<path d="M3230 1386 c0 -2 7 -7 16 -10 8 -3 12 -2 9 4 -6 10 -25 14 -25 6z"/>
<path d="M6706 1322 c-3 -5 1 -9 9 -9 8 0 12 4 9 9 -3 4 -7 8 -9 8 -2 0 -6 -4
-9 -8z"/>
<path d="M3394 1308 c3 -21 16 -38 29 -38 7 0 4 5 -6 11 -9 6 -15 14 -12 19 3
5 1 11 -4 14 -5 4 -8 0 -7 -6z"/>
<path d="M6721 1216 c-9 -11 -9 -16 1 -22 7 -4 10 -4 6 1 -4 4 -3 14 3 22 6 7
9 13 6 13 -2 0 -10 -6 -16 -14z"/>
<path d="M3475 1209 c-4 -6 -5 -12 -2 -15 2 -3 7 2 10 11 7 17 1 20 -8 4z"/>
<path d="M3573 1193 c0 -9 4 -10 14 -2 10 9 18 8 31 -2 15 -13 16 -12 4 3 -15
19 -49 20 -49 1z"/>
<path d="M6730 1165 c-10 -13 -11 -18 -1 -28 10 -9 11 -8 5 7 -5 12 -4 17 3
13 5 -3 10 0 10 8 0 19 -2 19 -17 0z"/>
<path d="M3536 1162 c-3 -5 1 -9 9 -9 8 0 12 4 9 9 -3 4 -7 8 -9 8 -2 0 -6 -4
-9 -8z"/>
<path d="M3606 1161 c3 -4 11 -6 17 -6 7 -1 11 -7 9 -15 -2 -8 0 -11 4 -7 17
16 11 33 -12 33 -13 0 -21 -2 -18 -5z"/>
<path d="M5656 1142 c-3 -5 1 -9 9 -9 8 0 12 4 9 9 -3 4 -7 8 -9 8 -2 0 -6 -4
-9 -8z"/>
<path d="M5756 1133 c-6 -14 -5 -15 5 -6 7 7 10 15 7 18 -3 3 -9 -2 -12 -12z"/>
<path d="M5793 1143 c4 -3 -1 -16 -10 -27 -18 -21 -18 -21 4 -2 20 16 23 36 6
36 -4 0 -3 -3 0 -7z"/>
<path d="M5959 1148 c-5 -13 -5 -60 0 -63 4 -2 7 12 7 31 0 29 -3 42 -7 32z"/>
<path d="M6025 1140 c-3 -6 1 -7 9 -4 18 7 21 14 7 14 -6 0 -13 -4 -16 -10z"/>
<path d="M5575 1131 c-3 -5 -2 -12 3 -15 5 -3 9 1 9 9 0 17 -3 19 -12 6z"/>
<path d="M5849 1123 c-13 -16 -12 -17 4 -4 16 13 21 21 13 21 -2 0 -10 -8 -17
-17z"/>
<path d="M3776 1122 c-3 -5 1 -9 9 -9 8 0 12 4 9 9 -3 4 -7 8 -9 8 -2 0 -6 -4
-9 -8z"/>
<path d="M5717 1112 c-15 -16 -15 -19 -2 -19 8 0 13 3 10 5 -3 3 0 11 6 19 17
20 5 16 -14 -5z"/>
<path d="M6046 1118 c3 -5 10 -6 15 -3 13 9 11 12 -6 12 -8 0 -12 -4 -9 -9z"/>
<path d="M6295 1120 c-3 -5 -1 -10 4 -10 6 0 11 5 11 10 0 6 -2 10 -4 10 -3 0
-8 -4 -11 -10z"/>
<path d="M6753 1114 c0 -9 4 -11 12 -4 7 5 14 9 16 7 2 -1 3 0 1 2 -7 11 -29
7 -29 -5z"/>
<path d="M3833 1095 c0 -8 4 -12 9 -9 5 3 6 10 3 15 -9 13 -12 11 -12 -6z"/>
<path d="M5515 1099 c-3 -4 2 -6 10 -5 21 3 28 13 10 13 -9 0 -18 -4 -20 -8z"/>
<path d="M5999 1093 c-13 -16 -12 -17 4 -4 9 7 17 15 17 17 0 8 -8 3 -21 -13z"/>
<path d="M6453 1095 c0 -8 4 -12 9 -9 5 3 6 10 3 15 -9 13 -12 11 -12 -6z"/>
<path d="M6499 1108 c-5 -16 -4 -46 2 -42 4 2 7 13 6 24 -1 17 -5 26 -8 18z"/>
<path d="M5834 1089 c-3 -6 -2 -15 3 -20 5 -5 9 -1 9 11 0 23 -2 24 -12 9z"/>
<path d="M6615 1089 c-4 -6 -5 -12 -2 -15 2 -3 7 2 10 11 7 17 1 20 -8 4z"/>
<path d="M6652 1095 c4 -4 0 -14 -10 -22 -16 -12 -16 -13 2 -6 15 5 17 3 11
-8 -5 -8 -4 -11 0 -6 14 12 14 36 2 44 -7 3 -9 3 -5 -2z"/>
<path d="M5667 1079 c7 -7 15 -10 18 -7 3 3 -2 9 -12 12 -14 6 -15 5 -6 -5z"/>
<path d="M5759 1073 c-13 -16 -12 -17 4 -4 16 13 21 21 13 21 -2 0 -10 -8 -17
-17z"/>
<path d="M5790 1078 c0 -4 4 -8 9 -8 6 0 12 4 15 8 3 5 -1 9 -9 9 -8 0 -15 -4
-15 -9z"/>
<path d="M6076 1082 c-3 -5 1 -9 9 -9 8 0 12 4 9 9 -3 4 -7 8 -9 8 -2 0 -6 -4
-9 -8z"/>
<path d="M6400 1085 c0 -2 6 -8 13 -14 10 -8 14 -7 14 2 0 8 -6 14 -14 14 -7
0 -13 -1 -13 -2z"/>
<path d="M6530 1081 c0 -6 4 -13 10 -16 6 -3 7 1 4 9 -7 18 -14 21 -14 7z"/>
<path d="M6730 1086 c0 -2 7 -7 16 -10 8 -3 12 -2 9 4 -6 10 -25 14 -25 6z"/>
<path d="M6113 1065 c0 -8 4 -12 9 -9 5 3 6 10 3 15 -9 13 -12 11 -12 -6z"/>
<path d="M6700 1076 c0 -2 7 -7 16 -10 8 -3 12 -2 9 4 -6 10 -25 14 -25 6z"/>
<path d="M6313 1053 c0 -9 4 -10 14 -2 7 6 13 12 13 14 0 1 -6 2 -13 2 -8 0
-14 -6 -14 -14z"/>
<path d="M6580 1066 c0 -2 8 -10 18 -17 15 -13 16 -12 3 4 -13 16 -21 21 -21
13z"/>
<path d="M5537 1053 c-10 -9 -9 -23 1 -23 5 0 9 7 9 15 0 17 -1 18 -10 8z"/>
<path d="M6075 1049 c-4 -6 -5 -12 -2 -15 2 -3 7 2 10 11 7 17 1 20 -8 4z"/>
<path d="M6196 1047 c3 -10 9 -15 12 -12 3 3 0 11 -7 18 -10 9 -11 8 -5 -6z"/>
<path d="M6726 1045 c-11 -8 -15 -15 -9 -15 6 0 16 7 23 15 16 19 11 19 -14 0z"/>
<path d="M5476 1042 c-3 -5 1 -9 9 -9 8 0 12 4 9 9 -3 4 -7 8 -9 8 -2 0 -6 -4
-9 -8z"/>
<path d="M5590 1046 c0 -2 7 -7 16 -10 8 -3 12 -2 9 4 -6 10 -25 14 -25 6z"/>
<path d="M5654 1035 c3 -23 12 -26 13 -5 1 11 -2 20 -7 20 -4 0 -7 -7 -6 -15z"/>
<path d="M6350 1040 c0 -5 5 -10 11 -10 5 0 7 5 4 10 -3 6 -8 10 -11 10 -2 0
-4 -4 -4 -10z"/>
<path d="M6472 1026 c-17 -20 -16 -21 3 -5 11 9 30 15 43 14 13 -1 25 1 27 5
11 17 -57 4 -73 -14z"/>
<path d="M6673 1043 c4 -3 3 -11 -3 -17 -6 -8 -3 -12 9 -12 12 0 17 6 13 18
-2 10 -9 18 -15 18 -6 0 -7 -3 -4 -7z"/>
<path d="M6775 1040 c-3 -5 -1 -10 4 -10 6 0 11 5 11 10 0 6 -2 10 -4 10 -3 0
-8 -4 -11 -10z"/>
<path d="M3999 1038 c-5 -18 -6 -38 -1 -34 7 8 12 36 6 36 -2 0 -4 -1 -5 -2z"/>
<path d="M3850 1019 c0 -5 5 -7 10 -4 6 3 10 8 10 11 0 2 -4 4 -10 4 -5 0 -10
-5 -10 -11z"/>
<path d="M6133 1015 c0 -8 4 -12 9 -9 5 3 6 10 3 15 -9 13 -12 11 -12 -6z"/>
<path d="M6250 1019 c0 -5 5 -7 10 -4 6 3 10 8 10 11 0 2 -4 4 -10 4 -5 0 -10
-5 -10 -11z"/>
<path d="M6601 1016 c-9 -11 -9 -16 1 -22 7 -4 10 -4 6 1 -4 4 -3 14 3 22 6 7
9 13 6 13 -2 0 -10 -6 -16 -14z"/>
<path d="M3950 1016 c0 -2 8 -10 18 -17 15 -13 16 -12 3 4 -13 16 -21 21 -21
13z"/>
<path d="M4100 1000 c-9 -6 -10 -10 -3 -10 6 0 15 5 18 10 8 12 4 12 -15 0z"/>
<path d="M4130 1001 c0 -6 4 -13 10 -16 6 -3 7 1 4 9 -7 18 -14 21 -14 7z"/>
<path d="M5526 998 c3 -5 10 -6 15 -3 13 9 11 12 -6 12 -8 0 -12 -4 -9 -9z"/>
<path d="M5215 981 c-3 -5 -2 -12 3 -15 5 -3 9 1 9 9 0 17 -3 19 -12 6z"/>
<path d="M5574 982 c3 -6 -2 -15 -11 -21 -10 -6 -13 -11 -7 -11 20 0 37 27 23
36 -7 4 -9 3 -5 -4z"/>
<path d="M4170 977 c0 -2 6 -10 14 -16 11 -9 16 -9 22 1 4 7 4 10 -1 6 -4 -4
-14 -3 -22 3 -7 6 -13 9 -13 6z"/>
<path d="M4114 954 c1 -8 4 -15 7 -16 2 -2 3 -1 2 1 -2 2 2 9 7 16 7 8 5 12
-4 12 -8 0 -13 -6 -12 -13z"/>
<path d="M4246 958 c3 -5 10 -6 15 -3 13 9 11 12 -6 12 -8 0 -12 -4 -9 -9z"/>
<path d="M5356 953 c-6 -14 -5 -15 5 -6 7 7 10 15 7 18 -3 3 -9 -2 -12 -12z"/>
<path d="M5386 958 c3 -5 10 -6 15 -3 13 9 11 12 -6 12 -8 0 -12 -4 -9 -9z"/>
<path d="M4876 941 c-3 -4 3 -16 13 -25 14 -13 18 -14 18 -2 0 8 -5 14 -11 13
-6 -1 -10 4 -8 11 2 14 -4 16 -12 3z"/>
<path d="M4935 941 c-3 -5 -2 -12 3 -15 5 -3 9 1 9 9 0 17 -3 19 -12 6z"/>
<path d="M4255 930 c-4 -6 -10 -8 -15 -5 -5 3 -11 1 -14 -4 -8 -13 22 -7 36 7
7 7 9 12 6 12 -4 0 -10 -5 -13 -10z"/>
<path d="M4375 930 c-4 -6 -10 -8 -15 -5 -5 3 -11 1 -14 -4 -8 -13 22 -7 36 7
7 7 9 12 6 12 -4 0 -10 -5 -13 -10z"/>
<path d="M4437 933 c-10 -9 -9 -23 1 -23 5 0 9 7 9 15 0 17 -1 18 -10 8z"/>
<path d="M4539 938 c-5 -18 -6 -38 -1 -34 7 8 12 36 6 36 -2 0 -4 -1 -5 -2z"/>
<path d="M5190 936 c0 -2 8 -10 18 -17 15 -13 16 -12 3 4 -13 16 -21 21 -21
13z"/>
<path d="M4591 907 c-13 -21 -12 -21 5 -5 10 10 16 20 13 22 -3 3 -11 -5 -18
-17z"/>
<path d="M4713 923 c4 -3 1 -13 -6 -22 -11 -14 -10 -14 5 -2 16 12 16 31 1 31
-4 0 -3 -3 0 -7z"/>
<path d="M4776 913 c-6 -14 -5 -15 5 -6 7 7 10 15 7 18 -3 3 -9 -2 -12 -12z"/>
<path d="M5093 913 c0 -9 4 -10 13 -2 7 6 19 7 25 3 7 -4 9 -3 5 4 -9 15 -43
11 -43 -5z"/>
<path d="M4667 899 c7 -7 15 -10 18 -7 3 3 -2 9 -12 12 -14 6 -15 5 -6 -5z"/>
<path d="M4860 906 c0 -2 8 -10 18 -17 15 -13 16 -12 3 4 -13 16 -21 21 -21
13z"/>
<path d="M5290 905 c0 -7 30 -13 34 -7 3 4 -4 9 -15 9 -10 1 -19 0 -19 -2z"/>
<path d="M4559 898 c-5 -18 -6 -38 -1 -34 7 8 12 36 6 36 -2 0 -4 -1 -5 -2z"/>
<path d="M4611 887 c-8 -10 -7 -14 2 -14 8 0 14 6 14 14 0 7 -1 13 -2 13 -2 0
-8 -6 -14 -13z"/>
<path d="M5059 898 c-5 -9 -5 -48 -1 -43 6 6 11 45 5 45 -2 0 -4 -1 -4 -2z"/>
<path d="M4761 876 c-9 -11 -9 -16 1 -22 7 -4 10 -4 6 1 -4 4 -3 14 3 22 6 7
9 13 6 13 -2 0 -10 -6 -16 -14z"/>
<path d="M4833 872 c-8 -14 -8 -19 1 -19 7 0 13 9 13 19 1 10 1 18 0 18 -1 0
-7 -8 -14 -18z"/>
<path d="M5097 875 c-4 -8 -3 -16 1 -19 4 -3 9 4 9 15 2 23 -3 25 -10 4z"/>
<path d="M4933 865 c0 -8 4 -12 9 -9 5 3 6 10 3 15 -9 13 -12 11 -12 -6z"/>
<path d="M4345 860 c-3 -6 1 -7 9 -4 18 7 21 14 7 14 -6 0 -13 -4 -16 -10z"/>
<path d="M4670 858 c0 -4 4 -8 9 -8 6 0 12 4 15 8 3 5 -1 9 -9 9 -8 0 -15 -4
-15 -9z"/>
<path d="M4710 866 c0 -2 7 -7 16 -10 8 -3 12 -2 9 4 -6 10 -25 14 -25 6z"/>
<path d="M4665 820 c-3 -6 1 -7 9 -4 18 7 21 14 7 14 -6 0 -13 -4 -16 -10z"/>
<path d="M4815 821 c-3 -5 -2 -12 3 -15 5 -3 9 1 9 9 0 17 -3 19 -12 6z"/>
</g>
</svg>
