<?xml version="1.0" encoding="UTF-8" standalone="no"?>
<!-- Created with Inkscape (http://www.inkscape.org/) -->

<svg
   xmlns:dc="http://purl.org/dc/elements/1.1/"
   xmlns:cc="http://creativecommons.org/ns#"
   xmlns:rdf="http://www.w3.org/1999/02/22-rdf-syntax-ns#"
   xmlns:svg="http://www.w3.org/2000/svg"
   xmlns="http://www.w3.org/2000/svg"
   xmlns:sodipodi="http://sodipodi.sourceforge.net/DTD/sodipodi-0.dtd"
   xmlns:inkscape="http://www.inkscape.org/namespaces/inkscape"
   width="2032"
   height="480"
   viewBox="0 0 537.63332 127"
   version="1.1"
   id="svg8"
   inkscape:version="0.92.5 (2060ec1f9f, 2020-04-08)"
   sodipodi:docname="banner2_2.svg">
  <defs
     id="defs2">
    <inkscape:perspective
       id="perspective817"
       inkscape:persp3d-origin="66.14583 : 44.097223 : 1"
       inkscape:vp_z="132.29166 : 66.145835 : 1"
       inkscape:vp_y="0 : 1000 : 0"
       inkscape:vp_x="0 : 66.145835 : 1"
       sodipodi:type="inkscape:persp3d" />
    <inkscape:perspective
       id="perspective817-9"
       inkscape:persp3d-origin="66.14583 : 44.097223 : 1"
       inkscape:vp_z="132.29166 : 66.145835 : 1"
       inkscape:vp_y="0 : 1000 : 0"
       inkscape:vp_x="0 : 66.145835 : 1"
       sodipodi:type="inkscape:persp3d" />
    <style
       id="style2">.cls-1{isolation:isolate;}.cls-2{fill:#447b98;}.cls-3{opacity:0.75;mix-blend-mode:multiply;}.cls-4{fill:#121a12;}.cls-5{fill:url(#Unbenannter_Verlauf_49);}.cls-6{fill:url(#Unbenannter_Verlauf_60);}.cls-7{fill:#1b2625;}.cls-8{fill:#f6f6f6;}.cls-9{fill:#fff;}</style>
    <linearGradient
       gradientUnits="userSpaceOnUse"
       y2="1004.66"
       x2="1683.21"
       y1="1225.47"
       x1="1462.4"
       id="Unbenannter_Verlauf_49">
      <stop
         id="stop4"
         stop-color="#21a1a9"
         offset="0" />
      <stop
         id="stop6"
         stop-color="#26a4a3"
         offset="0.2" />
      <stop
         id="stop8"
         stop-color="#33ac91"
         offset="0.48" />
      <stop
         id="stop10"
         stop-color="#49b974"
         offset="0.8" />
      <stop
         id="stop12"
         stop-color="#5ac35d"
         offset="1" />
    </linearGradient>
    <linearGradient
       gradientUnits="userSpaceOnUse"
       y2="1153.88"
       x2="1677.88"
       y1="1361.47"
       x1="1885.47"
       id="Unbenannter_Verlauf_60">
      <stop
         id="stop15"
         stop-color="#21a1a9"
         offset="0" />
      <stop
         id="stop17"
         stop-color="#24a3a5"
         offset="0.22" />
      <stop
         id="stop19"
         stop-color="#2ea997"
         offset="0.46" />
      <stop
         id="stop21"
         stop-color="#3fb381"
         offset="0.7" />
      <stop
         id="stop23"
         stop-color="#55c063"
         offset="0.96" />
      <stop
         id="stop25"
         stop-color="#5ac35d"
         offset="1" />
    </linearGradient>
  </defs>
  <sodipodi:namedview
     id="base"
     pagecolor="#ffffff"
     bordercolor="#666666"
     borderopacity="1.0"
     inkscape:pageopacity="0.0"
     inkscape:pageshadow="2"
     inkscape:zoom="1.4"
     inkscape:cx="921.84708"
     inkscape:cy="-63.400688"
     inkscape:document-units="mm"
     inkscape:current-layer="layer2"
     showgrid="false"
     units="px"
     showguides="true"
     inkscape:guide-bbox="true"
     inkscape:window-width="3768"
     inkscape:window-height="2096"
     inkscape:window-x="1992"
     inkscape:window-y="27"
     inkscape:window-maximized="1">
    <sodipodi:guide
       position="178.40476,25.702381"
       orientation="0,1"
       id="guide4985"
       inkscape:locked="false" />
    <sodipodi:guide
       position="243.21527,-0.26726953"
       orientation="0,1"
       id="guide4987"
       inkscape:locked="false" />
  </sodipodi:namedview>
  <metadata
     id="metadata5">
    <rdf:RDF>
      <cc:Work
         rdf:about="">
        <dc:format>image/svg+xml</dc:format>
        <dc:type
           rdf:resource="http://purl.org/dc/dcmitype/StillImage" />
        <dc:title></dc:title>
      </cc:Work>
    </rdf:RDF>
  </metadata>
  <g
     inkscape:label="mountains"
     inkscape:groupmode="layer"
     id="layer1"
     transform="translate(0,-169.99998)"
     style="display:inline;opacity:0.2">
    <path
       style="display:inline;opacity:1;fill:#009688;fill-opacity:1;stroke:none;stroke-width:1.32048976;stroke-linecap:round;stroke-linejoin:round;stroke-miterlimit:4;stroke-dasharray:none;stroke-dashoffset:0;stroke-opacity:1"
       d="M 116.91518,123.57924 C 66.464164,124.87993 80.246702,127.21267 -8.5441115e-8,372.45703 L 0,480 h 2032 v -56.0332 c -33.4457,-55.95633 -43.4679,-8.45864 -62.3574,-0.125 -43.6139,-248.49547 -61.0427,-90.27649 -82.8555,-0.16602 -41.0627,-158.32562 -71.5813,-86.60441 -101.4277,-0.20312 -76.795,-39.14351 -139.3429,-356.440956 -249.9942,-139.95899 -86.8091,-257.45406 -157.3607,62.38705 -149.9179,139.16016 -20.0467,-278.68585 -36.8651,-243.91318 -51.5293,-0.10156 -52.1441,-248.93586 -113.4989,-272.27772 -170.7051,-0.3418 -39.9985,-150.12367 -81.903,-150.19561 -125.7109,-0.25 C 1004.8053,249.698 912.99214,384.73394 901.78516,421.70898 851.9118,259.11048 800.28532,213.28297 750.35742,421.40625 679.75581,161.61018 642.32,410.43961 593.21094,421.0918 552.07395,102.68598 435.30795,116.76703 431.7832,382.40234 377.05353,-84.770096 319.00919,244.65223 312.85714,363.17439 293.72589,151.84501 238.53447,158.01262 213.36245,370.9947 173.36519,198.26955 154.77364,122.60322 116.91518,123.57924 Z M 45.34375,382.85742 c 7.040173,-2.3e-4 12.747613,5.34257 12.748047,11.9336 7.1e-4,6.59178 -5.707065,11.93577 -12.748047,11.93554 -7.040982,2.3e-4 -12.748757,-5.34376 -12.748047,-11.93554 4.34e-4,-6.59103 5.707874,-11.93383 12.748047,-11.9336 z m 135.68945,0 8.49414,7.09766 -48.16992,48.07422 -0.0723,-0.0566 -0.0488,0.0566 -30.17774,-25.51758 6.55664,-7.24024 22.17188,18.75 z m 363.14453,0 8.03125,7.24219 -19.13867,19.31836 21.45313,19.34765 -9.1836,9.27149 -21.375,-19.27734 -19.24023,19.42187 -8.03125,-7.24219 19.24219,-19.42187 -20.58789,-18.56641 9.18554,-9.26953 20.50586,18.49414 z m 147.23243,0 h 8.40625 v 15.18555 h -8.40625 z m 586.29684,0 8.4942,7.09766 -48.1719,48.07422 -0.072,-0.0566 -0.049,0.0566 -30.1777,-25.51758 6.5566,-7.24024 22.1738,18.75 z m 202.5118,0 8.0312,7.24219 -19.1387,19.31836 21.4532,19.34765 -9.1836,9.27149 -21.375,-19.27734 -19.2403,19.42187 -8.0312,-7.24219 19.2422,-19.42187 -20.5879,-18.56641 9.1855,-9.26953 20.5059,18.49414 z m 346.3378,0 8.1836,2.98828 -19.2207,11.11914 h 53.0293 v 6.10547 h -53.1816 l 18.998,11.11719 -8.0898,2.99023 -24.1074,-14.10742 v -6.10547 z m 111.4102,0 22.8105,13.58789 v 5.88086 l -22.5488,13.58789 -7.5664,-2.8789 17.7695,-10.70899 h -49.7441 v -5.88086 h 49.5996 l -17.9766,-10.70898 z m -300.8281,0.5293 c 13.5171,-0.28483 26.9141,4.78192 40.1718,16.05273 v 12.26563 c -27.5629,-25.81455 -54.4594,-19.84781 -81.0644,0 v -12.26563 c 13.7381,-10.13149 27.3754,-15.7679 40.8926,-16.05273 z m -973.40432,2.23047 h 8.40429 v 15.18554 h -8.40429 z m 690.26952,0.27539 c 8.0119,8e-5 14.507,5.26315 14.5078,11.75586 6e-4,6.49347 -6.4949,11.75773 -14.5078,11.75781 -8.0129,-8e-5 -14.5084,-5.26434 -14.5078,-11.75781 8e-4,-6.49271 6.4959,-11.75578 14.5078,-11.75586 z m -1110.51757,1.07226 h 89.55664 v 46.49024 H 243.48633 V 418.3457 l -18.25,-7.8457 18.25,-5.79102 z m 137.30664,0.81641 h 63.94726 v 36.95117 h -30.6914 v 7.81446 h 8.77148 v 5.00976 h -21.11719 v -5.00976 h 8.60352 v -7.81446 h -29.51367 z m 689.33003,2.44922 h 63.9473 v 36.95312 h -30.6914 v 7.8125 h 8.7715 v 5.00977 h -21.1152 v -5.00977 h 8.6015 v -7.8125 h -29.5137 z m -209.68159,0.58789 24.38671,14.10742 v 6.10547 l -24.10742,14.10742 -8.08984,-2.98828 19,-11.11914 h -53.18359 v -6.10547 h 53.02929 l -19.2207,-11.11719 z m 73.89648,1.13086 h 89.55661 v 46.49023 h -89.55661 v -15.10937 l -18.25,-7.8457 18.25,-5.78907 z M 640.875,404.8418 c 26.60508,21.3239 53.50153,27.7344 81.06445,0 v 13.17773 c -26.51542,24.21812 -53.58815,21.76997 -81.06445,0 z m -597.412109,2.93164 h 4.318359 v 11.44726 l 11.447266,-7.69531 h 13.685546 v 3.72266 H 59.908203 l -12.126953,8.15234 v 10.05664 H 43.462891 V 423.45117 L 29.640625,414.1582 H 16.634766 v -3.72265 h 13.685546 l 13.142579,8.83593 z m 1335.699209,0.6875 2.3672,3.73633 -24.9102,11.86523 v 11.05859 h -4.914 v -25.30273 h 4.914 v 9.38086 z m -589.47069,3.19531 8.18359,2.99023 -19.2207,11.11719 h 53.02929 v 6.10547 h -53.18164 l 18.99805,11.11719 -8.08984,2.99023 -24.10743,-14.10742 v -6.10547 z m 829.41409,3.80859 h 8.4043 v 14.13477 h -8.4043 z m 27.6777,2.57032 h 8.4043 v 14.13281 h -8.4043 z"
       transform="matrix(0.26458333,0,0,0.26458333,0,169.99998)"
       id="rect4518"
       inkscape:connector-curvature="0"
       sodipodi:nodetypes="sccccccccccccccccccsccccccccccccccccccccccccccccccccccccccccccccccccccccccccccccccccccccccccccccsccccsccccccccccccccccccccccccccccccccccccccccccccccccccccccccccccccccccccccccccccccccccccccccccccccccccccccccccccccccccc" />
  </g>
  <g
     inkscape:groupmode="layer"
     id="layer2"
     inkscape:label="logo"
     style="opacity:1" />
  <g
     inkscape:groupmode="layer"
     id="layer3"
     inkscape:label="arrow"
     style="display:inline;opacity:0.3"
     sodipodi:insensitive="true" />
</svg>
